<?xml version="1.0" encoding="UTF-8" standalone="no"?>
<!-- Created with Inkscape (http://www.inkscape.org/) -->

<svg
   width="700"
   height="700"
   viewBox="0 0 28 28"
   version="1.1"
   id="svg520"
   inkscape:version="1.1.1 (3bf5ae0d25, 2021-09-20)"
   sodipodi:docname="spaceros_black_on_transparent_glyph.svg"
   inkscape:export-filename="C:\Users\shonigmann\OneDrive - Blue Origin, LLC\Pictures\spaceros_black_on_transparent_glyph.png"
   inkscape:export-xdpi="96"
   inkscape:export-ydpi="96"
   xmlns:inkscape="http://www.inkscape.org/namespaces/inkscape"
   xmlns:sodipodi="http://sodipodi.sourceforge.net/DTD/sodipodi-0.dtd"
   xmlns="http://www.w3.org/2000/svg"
   xmlns:svg="http://www.w3.org/2000/svg">
  <sodipodi:namedview
     id="namedview522"
     pagecolor="#505050"
     bordercolor="#eeeeee"
     borderopacity="1"
     inkscape:pageshadow="0"
     inkscape:pageopacity="0"
     inkscape:pagecheckerboard="0"
     inkscape:document-units="px"
     showgrid="false"
     inkscape:zoom="0.5"
     inkscape:cx="344"
     inkscape:cy="70"
     inkscape:window-width="2160"
     inkscape:window-height="1256"
     inkscape:window-x="2869"
     inkscape:window-y="-11"
     inkscape:window-maximized="1"
     inkscape:current-layer="layer1"
     units="px"
     width="100px"
     scale-x="0.04" />
  <defs
     id="defs517" />
  <g
     inkscape:label="Layer 1"
     inkscape:groupmode="layer"
     id="layer1"
     transform="translate(-110.41778,-42.77584)">
    <g
       id="g138"
       transform="translate(8.4899961,3.2500398)">
      <g
         id="g27"
         transform="matrix(0.35277777,0,0,-0.35277777,112.38452,48.929978)">
        <path
           d="m 0,0 c 0,-1.539 -1.248,-2.787 -2.787,-2.787 -1.54,0 -2.788,1.248 -2.788,2.787 0,1.539 1.248,2.787 2.788,2.787 C -1.248,2.787 0,1.539 0,0"
           style="fill:#231f20;fill-opacity:1;fill-rule:nonzero;stroke:none"
           id="path29" />
      </g>
      <g
         id="g31"
         transform="matrix(0.35277777,0,0,-0.35277777,112.38452,53.500461)">
        <path
           d="m 0,0 c 0,-1.539 -1.248,-2.787 -2.787,-2.787 -1.54,0 -2.788,1.248 -2.788,2.787 0,1.539 1.248,2.787 2.788,2.787 C -1.248,2.787 0,1.539 0,0"
           style="fill:#231f20;fill-opacity:1;fill-rule:nonzero;stroke:none"
           id="path33" />
      </g>
      <g
         id="g35"
         transform="matrix(0.35277777,0,0,-0.35277777,112.38452,58.026141)">
        <path
           d="m 0,0 c 0,-1.539 -1.248,-2.787 -2.787,-2.787 -1.54,0 -2.788,1.248 -2.788,2.787 0,1.539 1.248,2.787 2.788,2.787 C -1.248,2.787 0,1.539 0,0"
           style="fill:#231f20;fill-opacity:1;fill-rule:nonzero;stroke:none"
           id="path37" />
      </g>
      <g
         id="g39"
         transform="matrix(0.35277777,0,0,-0.35277777,116.8878,58.026141)">
        <path
           d="m 0,0 c 0,-1.539 -1.248,-2.787 -2.787,-2.787 -1.54,0 -2.788,1.248 -2.788,2.787 0,1.539 1.248,2.787 2.788,2.787 C -1.248,2.787 0,1.539 0,0"
           style="fill:#231f20;fill-opacity:1;fill-rule:nonzero;stroke:none"
           id="path41" />
      </g>
      <g
         id="g43"
         transform="matrix(0.35277777,0,0,-0.35277777,116.8878,53.494287)">
        <path
           d="m 0,0 c 0,-1.539 -1.248,-2.787 -2.787,-2.787 -1.54,0 -2.788,1.248 -2.788,2.787 0,1.539 1.248,2.787 2.788,2.787 C -1.248,2.787 0,1.539 0,0"
           style="fill:#231f20;fill-opacity:1;fill-rule:nonzero;stroke:none"
           id="path45" />
      </g>
      <g
         id="g47"
         transform="matrix(0.35277777,0,0,-0.35277777,121.43779,58.026141)">
        <path
           d="m 0,0 c 0,-1.539 -1.248,-2.787 -2.787,-2.787 -1.54,0 -2.788,1.248 -2.788,2.787 0,1.539 1.248,2.787 2.788,2.787 C -1.248,2.787 0,1.539 0,0"
           style="fill:#231f20;fill-opacity:1;fill-rule:nonzero;stroke:none"
           id="path49" />
      </g>
      <g
         id="g83"
         transform="matrix(0.35277777,0,0,-0.35277777,126.97125,48.918054)">
        <path
           d="m 0,0 c 0,0.002 0.001,0.003 0.001,0.005 0,0.638 -0.532,1.155 -1.188,1.155 h -5.021 c -1.457,0 -2.91,0.162 -4.329,0.483 l -2.314,0.523 c -1.731,0.391 -3.082,1.704 -3.484,3.387 l -0.538,2.249 c -0.33,1.38 -0.497,2.792 -0.497,4.208 v 4.271 c 0,0.593 -0.466,1.064 -1.058,1.13 h 0.045 c -0.591,-0.066 -1.058,-0.537 -1.058,-1.13 V 12.01 c 0,-1.416 -0.166,-2.828 -0.496,-4.208 L -20.475,5.553 C -20.877,3.87 -22.229,2.557 -23.959,2.166 L -26.273,1.643 C -27.693,1.322 -29.145,1.16 -30.602,1.16 h -5.021 c -0.656,0 -1.188,-0.517 -1.188,-1.155 0,-0.002 10e-4,-0.003 10e-4,-0.005 v 0.041 c 0,-0.002 -10e-4,-0.003 -10e-4,-0.005 0,-0.638 0.532,-1.155 1.188,-1.155 h 5.021 c 1.457,0 2.909,-0.162 4.329,-0.483 l 2.314,-0.523 c 1.73,-0.391 3.082,-1.704 3.484,-3.387 l 0.538,-2.249 c 0.33,-1.38 0.496,-2.792 0.496,-4.208 v -4.271 c 0,-0.593 0.467,-1.064 1.058,-1.13 h -0.045 c 0.592,0.066 1.058,0.537 1.058,1.13 v 4.271 c 0,1.416 0.167,2.828 0.497,4.208 l 0.538,2.249 c 0.402,1.683 1.753,2.996 3.484,3.387 l 2.314,0.523 c 1.419,0.321 2.872,0.483 4.329,0.483 h 5.021 c 0.656,0 1.188,0.517 1.188,1.155 C 0.001,0.038 0,0.039 0,0.041 Z"
           style="fill:#231f20;fill-opacity:1;fill-rule:nonzero;stroke:none"
           id="path85" />
      </g>
    </g>
  </g>
</svg>
