<?xml version="1.0" encoding="UTF-8" standalone="no"?>
<!-- Created with Inkscape (http://www.inkscape.org/) -->

<svg
   width="73.126068mm"
   height="16.233492mm"
   viewBox="0 0 73.126068 16.233492"
   version="1.1"
   id="svg520"
   inkscape:version="1.1.1 (3bf5ae0d25, 2021-09-20)"
   sodipodi:docname="spaceros_black_on_white.svg"
   xmlns:inkscape="http://www.inkscape.org/namespaces/inkscape"
   xmlns:sodipodi="http://sodipodi.sourceforge.net/DTD/sodipodi-0.dtd"
   xmlns="http://www.w3.org/2000/svg"
   xmlns:svg="http://www.w3.org/2000/svg">
  <sodipodi:namedview
     id="namedview522"
     pagecolor="#505050"
     bordercolor="#eeeeee"
     borderopacity="1"
     inkscape:pageshadow="0"
     inkscape:pageopacity="0"
     inkscape:pagecheckerboard="0"
     inkscape:document-units="mm"
     showgrid="false"
     inkscape:zoom="3.9408307"
     inkscape:cx="132.45938"
     inkscape:cy="67.752213"
     inkscape:window-width="2160"
     inkscape:window-height="1256"
     inkscape:window-x="2869"
     inkscape:window-y="-11"
     inkscape:window-maximized="1"
     inkscape:current-layer="layer1" />
  <defs
     id="defs517" />
  <g
     inkscape:label="Layer 1"
     inkscape:groupmode="layer"
     id="layer1"
     transform="translate(-110.41778,-42.77584)">
    <path
       d="m 183.54378,59.00884 h -73.126 v -16.233 h 73.126 z"
       style="fill:#fffffd;fill-opacity:1;fill-rule:nonzero;stroke:none;stroke-width:0.188765"
       id="path207"
       inkscape:export-filename="C:\Users\shonigmann\Blue Origin, LLC\Advanced Development Programs - ADVT-1635 Space ROS\2.0 - Space ROS ACO (ADVT-1984)\2.6 - ACO Shared Drive (No Export Controlled Content)\Blue Origin\space_ros_logos\spaceros_black_on_white.png"
       inkscape:export-xdpi="782.22241"
       inkscape:export-ydpi="782.22241" />
    <g
       id="g889">
      <g
         id="g27"
         transform="matrix(0.35277777,0,0,-0.35277777,112.38452,48.929978)">
        <path
           d="m 0,0 c 0,-1.539 -1.248,-2.787 -2.787,-2.787 -1.54,0 -2.788,1.248 -2.788,2.787 0,1.539 1.248,2.787 2.788,2.787 C -1.248,2.787 0,1.539 0,0"
           style="fill:#231f20;fill-opacity:1;fill-rule:nonzero;stroke:none"
           id="path29" />
      </g>
      <g
         id="g31"
         transform="matrix(0.35277777,0,0,-0.35277777,112.38452,53.500461)">
        <path
           d="m 0,0 c 0,-1.539 -1.248,-2.787 -2.787,-2.787 -1.54,0 -2.788,1.248 -2.788,2.787 0,1.539 1.248,2.787 2.788,2.787 C -1.248,2.787 0,1.539 0,0"
           style="fill:#231f20;fill-opacity:1;fill-rule:nonzero;stroke:none"
           id="path33" />
      </g>
      <g
         id="g35"
         transform="matrix(0.35277777,0,0,-0.35277777,112.38452,58.026141)">
        <path
           d="m 0,0 c 0,-1.539 -1.248,-2.787 -2.787,-2.787 -1.54,0 -2.788,1.248 -2.788,2.787 0,1.539 1.248,2.787 2.788,2.787 C -1.248,2.787 0,1.539 0,0"
           style="fill:#231f20;fill-opacity:1;fill-rule:nonzero;stroke:none"
           id="path37" />
      </g>
      <g
         id="g39"
         transform="matrix(0.35277777,0,0,-0.35277777,116.8878,58.026141)">
        <path
           d="m 0,0 c 0,-1.539 -1.248,-2.787 -2.787,-2.787 -1.54,0 -2.788,1.248 -2.788,2.787 0,1.539 1.248,2.787 2.788,2.787 C -1.248,2.787 0,1.539 0,0"
           style="fill:#231f20;fill-opacity:1;fill-rule:nonzero;stroke:none"
           id="path41" />
      </g>
      <g
         id="g43"
         transform="matrix(0.35277777,0,0,-0.35277777,116.8878,53.494287)">
        <path
           d="m 0,0 c 0,-1.539 -1.248,-2.787 -2.787,-2.787 -1.54,0 -2.788,1.248 -2.788,2.787 0,1.539 1.248,2.787 2.788,2.787 C -1.248,2.787 0,1.539 0,0"
           style="fill:#231f20;fill-opacity:1;fill-rule:nonzero;stroke:none"
           id="path45" />
      </g>
      <g
         id="g47"
         transform="matrix(0.35277777,0,0,-0.35277777,121.43779,58.026141)">
        <path
           d="m 0,0 c 0,-1.539 -1.248,-2.787 -2.787,-2.787 -1.54,0 -2.788,1.248 -2.788,2.787 0,1.539 1.248,2.787 2.788,2.787 C -1.248,2.787 0,1.539 0,0"
           style="fill:#231f20;fill-opacity:1;fill-rule:nonzero;stroke:none"
           id="path49" />
      </g>
      <g
         id="g51"
         transform="matrix(0.35277777,0,0,-0.35277777,131.5419,54.620178)">
        <path
           d="m 0,0 h 9.958 c 1.545,0 2.404,0.859 2.404,2.404 0,1.202 -0.687,1.957 -2.232,2.232 L 4.292,5.666 C 1.545,6.147 0,7.726 0,10.13 c 0,2.747 1.888,4.636 4.635,4.636 h 9.648 V 13.221 L 13.596,12.534 H 4.635 c -1.545,0 -2.403,-0.859 -2.403,-2.404 0,-1.202 0.686,-1.957 2.232,-2.232 l 5.837,-1.03 c 2.747,-0.481 4.293,-2.06 4.293,-4.464 0,-2.747 -1.889,-4.636 -4.636,-4.636 H 0 Z"
           style="fill:#231f20;fill-opacity:1;fill-rule:nonzero;stroke:none"
           id="path53" />
      </g>
      <g
         id="g55"
         transform="matrix(0.35277777,0,0,-0.35277777,141.59706,54.620178)">
        <path
           d="m 0,0 c 1.717,0 2.747,1.031 2.747,2.747 v 7.383 c 0,1.717 -1.03,2.747 -2.747,2.747 h -4.979 c -2.232,0 -3.605,-1.373 -3.605,-3.605 V 0 Z m -10.816,14.766 h 1.545 l 0.515,-1.717 h 0.172 c 0,0 0.858,2.06 3.948,2.06 h 4.979 c 2.747,0 4.636,-1.888 4.636,-4.636 V 2.404 c 0,-2.747 -1.889,-4.636 -4.636,-4.636 h -8.927 v -5.837 h -2.232 z"
           style="fill:#231f20;fill-opacity:1;fill-rule:nonzero;stroke:none"
           id="path57" />
      </g>
      <g
         id="g59"
         transform="matrix(0.35277777,0,0,-0.35277777,147.77596,54.741145)">
        <path
           d="m 0,0 c 2.232,0 3.605,1.374 3.605,3.605 v 2.404 h -8.069 c -1.717,0 -2.747,-1.03 -2.747,-2.747 V 2.747 C -7.211,1.03 -6.181,0 -4.464,0 Z m -9.443,3.605 c 0,2.747 1.889,4.636 4.635,4.636 h 8.413 v 1.889 c 0,1.717 -1.03,2.747 -2.746,2.747 h -8.894 v 2.232 h 9.237 c 2.747,0 4.636,-1.889 4.636,-4.636 V -1.889 H 4.293 L 3.778,-0.172 H 3.605 c 0,0 -0.858,-2.06 -3.949,-2.06 h -4.464 c -2.746,0 -4.635,1.888 -4.635,4.636 z"
           style="fill:#231f20;fill-opacity:1;fill-rule:nonzero;stroke:none"
           id="path61" />
      </g>
      <g
         id="g63"
         transform="matrix(0.35277777,0,0,-0.35277777,151.16877,51.058674)">
        <path
           d="m 0,0 c 0,2.781 1.889,4.67 4.635,4.67 h 9.443 V 3.125 L 13.392,2.439 H 4.979 c -1.717,0 -2.747,-1.031 -2.747,-2.748 v -7.039 c 0,-1.717 1.03,-2.748 2.747,-2.748 h 9.099 v -2.231 H 4.635 C 1.889,-12.327 0,-10.438 0,-7.692 Z"
           style="fill:#231f20;fill-opacity:1;fill-rule:nonzero;stroke:none"
           id="path65" />
      </g>
      <g
         id="g67"
         transform="matrix(0.35277777,0,0,-0.35277777,161.58732,52.136622)">
        <path
           d="m 0,0 v 3.09 c 0,1.717 -1.03,2.747 -2.747,2.747 h -6.009 c -1.717,0 -2.747,-1.03 -2.747,-2.747 V 0 Z m -13.735,3.433 c 0,2.748 1.889,4.636 4.636,4.636 h 6.695 c 2.748,0 4.636,-1.888 4.636,-4.636 v -5.665 h -13.735 v -2.061 c 0,-1.716 1.03,-2.747 2.747,-2.747 H 1.545 V -9.272 H -9.099 c -2.747,0 -4.636,1.889 -4.636,4.636 z"
           style="fill:#231f20;fill-opacity:1;fill-rule:nonzero;stroke:none"
           id="path69" />
      </g>
      <g
         id="g71"
         transform="matrix(0.35277777,0,0,-0.35277777,167.51215,51.715088)">
        <path
           d="M 0,0 C 0.766,0 1.148,0.383 1.148,1.149 V 1.915 C 1.148,2.681 0.766,3.064 0,3.064 H -6.765 V 0 Z M -11.616,7.404 H 1.787 c 2.553,0 4.212,-1.66 4.212,-4.212 v -3.32 c 0,-3.446 -3.191,-3.829 -3.191,-3.829 l 3.574,-4.084 v -2.425 H 1.966 l -4.774,6.126 h -3.957 v -6.126 h -4.851 z"
           style="fill:#231f20;fill-opacity:1;fill-rule:nonzero;stroke:none"
           id="path73" />
      </g>
      <g
         id="g75"
         transform="matrix(0.35277777,0,0,-0.35277777,174.71749,53.966375)">
        <path
           d="M 0,0 C 0.766,0 1.149,0.383 1.149,1.148 V 8.552 C 1.149,9.317 0.766,9.7 0,9.7 H -6.127 C -6.892,9.7 -7.276,9.317 -7.276,8.552 V 1.148 C -7.276,0.383 -6.892,0 -6.127,0 Z m -12.125,9.828 c 0,2.553 1.659,4.212 4.212,4.212 H 1.788 C 4.34,14.04 6,12.381 6,9.828 V -0.128 C 6,-2.681 4.34,-4.34 1.788,-4.34 h -9.701 c -2.553,0 -4.212,1.659 -4.212,4.212 z"
           style="fill:#231f20;fill-opacity:1;fill-rule:nonzero;stroke:none"
           id="path77" />
      </g>
      <g
         id="g79"
         transform="matrix(0.35277777,0,0,-0.35277777,177.50994,53.876452)">
        <path
           d="m 0,0 h 11.361 c 0.637,0 0.893,0.255 0.893,0.766 v 0.255 c 0,0.511 -0.256,0.792 -0.766,0.868 L 4.085,3.064 C 1.353,3.446 0,4.85 0,7.276 V 9.318 C 0,11.87 1.66,13.53 4.213,13.53 H 16.594 V 10.722 L 15.062,9.19 H 5.744 C 5.106,9.19 4.85,8.935 4.85,8.424 V 8.169 C 4.85,7.658 5.106,7.378 5.617,7.301 L 13.02,6.127 C 15.828,5.693 17.104,4.34 17.104,1.915 v -2.043 c 0,-2.552 -1.659,-4.212 -4.212,-4.212 H 0 Z"
           style="fill:#231f20;fill-opacity:1;fill-rule:nonzero;stroke:none"
           id="path81" />
      </g>
      <g
         id="g83"
         transform="matrix(0.35277777,0,0,-0.35277777,126.97125,48.918054)">
        <path
           d="m 0,0 c 0,0.002 0.001,0.003 0.001,0.005 0,0.638 -0.532,1.155 -1.188,1.155 h -5.021 c -1.457,0 -2.91,0.162 -4.329,0.483 l -2.314,0.523 c -1.731,0.391 -3.082,1.704 -3.484,3.387 l -0.538,2.249 c -0.33,1.38 -0.497,2.792 -0.497,4.208 v 4.271 c 0,0.593 -0.466,1.064 -1.058,1.13 h 0.045 c -0.591,-0.066 -1.058,-0.537 -1.058,-1.13 V 12.01 c 0,-1.416 -0.166,-2.828 -0.496,-4.208 L -20.475,5.553 C -20.877,3.87 -22.229,2.557 -23.959,2.166 L -26.273,1.643 C -27.693,1.322 -29.145,1.16 -30.602,1.16 h -5.021 c -0.656,0 -1.188,-0.517 -1.188,-1.155 0,-0.002 10e-4,-0.003 10e-4,-0.005 v 0.041 c 0,-0.002 -10e-4,-0.003 -10e-4,-0.005 0,-0.638 0.532,-1.155 1.188,-1.155 h 5.021 c 1.457,0 2.909,-0.162 4.329,-0.483 l 2.314,-0.523 c 1.73,-0.391 3.082,-1.704 3.484,-3.387 l 0.538,-2.249 c 0.33,-1.38 0.496,-2.792 0.496,-4.208 v -4.271 c 0,-0.593 0.467,-1.064 1.058,-1.13 h -0.045 c 0.592,0.066 1.058,0.537 1.058,1.13 v 4.271 c 0,1.416 0.167,2.828 0.497,4.208 l 0.538,2.249 c 0.402,1.683 1.753,2.996 3.484,3.387 l 2.314,0.523 c 1.419,0.321 2.872,0.483 4.329,0.483 h 5.021 c 0.656,0 1.188,0.517 1.188,1.155 C 0.001,0.038 0,0.039 0,0.041 Z"
           style="fill:#231f20;fill-opacity:1;fill-rule:nonzero;stroke:none"
           id="path85" />
      </g>
    </g>
  </g>
</svg>
